# xmcd
#
# Track frame offsets: 
#        150
#        19418
#        42759
#        63636
#        82035
#        95483
#        115259
#        131928
#        159108
#        172959
#        197981
#
# Disc length: 2940 seconds
#
# Revision: 1
# Processed by: cddbd v1.5.2PL0 Copyright (c) Steve Scherf et al.
# Submitted via: ExactAudioCopy v0.99pb5
#
DISCID=950b7a0b
DTITLE=Polo Montañez Grupo - Cuestión de Suerte
DYEAR=2004
DGENRE=Salsa
TTITLE0=Cuestión de suerte
TTITLE1=La mujer que amo
TTITLE2=Historia I
TTITLE3=Juana y Miguel
TTITLE4=Renace la vida
TTITLE5=Con o sil ella
TTITLE6=Mi corazón y yo
TTITLE7=Amor a simple vista
TTITLE8=Como nunca nadie
TTITLE9=Mensaje de amor
TTITLE10=Vives en nuestros corazones
EXTD=YEAR: 2004
EXTT0=
EXTT1=
EXTT2=
EXTT3=
EXTT4=
EXTT5=
EXTT6=
EXTT7=
EXTT8=
EXTT9=
EXTT10=
PLAYORDER=
